<svg width="22" height="20" viewBox="0 0 22 20" fill="none" xmlns="http://www.w3.org/2000/svg">
<path d="M1 18.5H3M3 18.5H13M3 18.5V4.7C3 3.58 3 3.02 3.218 2.592C3.41 2.215 3.715 1.91 4.092 1.718C4.52 1.5 5.08 1.5 6.2 1.5H9.8C10.92 1.5 11.48 1.5 11.907 1.718C12.284 1.91 12.591 2.215 12.782 2.592C13 3.019 13 3.579 13 4.697V10.5M13 18.5H19M13 18.5V10.5M13 10.5C13 9.568 13 9.102 13.152 8.735C13.2524 8.49227 13.3996 8.2717 13.5853 8.08588C13.7709 7.90005 13.9914 7.75262 14.234 7.652C14.602 7.5 15.068 7.5 16 7.5C16.932 7.5 17.398 7.5 17.766 7.652C18.0086 7.75262 18.2291 7.90005 18.4147 8.08588C18.6004 8.2717 18.7476 8.49227 18.848 8.735C19 9.102 19 9.568 19 10.5V18.5M19 18.5H21M6 8.5H10M6 5.5H10" stroke="white" stroke-width="2" stroke-linecap="round" stroke-linejoin="round"/>
</svg>
