<svg width="20" height="21" viewBox="0 0 20 21" fill="none" xmlns="http://www.w3.org/2000/svg">
<path d="M7.502 2.757C7.35357 2.38606 7.09746 2.06808 6.76665 1.84404C6.43585 1.62 6.04553 1.50017 5.646 1.5H2.895C2.39241 1.5 1.91041 1.69965 1.55503 2.05503C1.19965 2.41041 1 2.89241 1 3.395C1 12.289 8.21 19.5 17.106 19.5C17.6084 19.4997 18.0902 19.3 18.4453 18.9446C18.8005 18.5893 19 18.1074 19 17.605V14.854C19 14.4543 18.8803 14.0638 18.6562 13.7328C18.4322 13.4018 18.1141 13.1455 17.743 12.997L15.107 11.943C14.7723 11.809 14.4075 11.7681 14.0514 11.8244C13.6953 11.8807 13.361 12.0323 13.084 12.263L12.404 12.831C12.0204 13.1507 11.5312 13.3155 11.0323 13.2929C10.5335 13.2703 10.0611 13.0621 9.708 12.709L7.792 10.79C7.43914 10.4372 7.2309 9.96529 7.20814 9.46685C7.18538 8.96841 7.34976 8.47946 7.669 8.096L8.236 7.416C8.46725 7.13905 8.61927 6.8047 8.67595 6.44838C8.73264 6.09206 8.69188 5.72704 8.558 5.392L7.502 2.757Z" stroke="white" stroke-width="2" stroke-linecap="round" stroke-linejoin="round"/>
</svg>
