<svg width="134" height="105" viewBox="0 0 134 105" fill="none" xmlns="http://www.w3.org/2000/svg">
<path d="M70.9191 92.8084H69.2224C67.8725 92.8084 66.5778 93.315 65.6232 94.2166C64.6686 95.1182 64.1324 96.3411 64.1324 97.6161C64.1324 98.8912 64.6686 100.114 65.6232 101.016C66.5778 101.917 67.8725 102.424 69.2224 102.424H126.91C128.26 102.424 129.555 101.917 130.509 101.016C131.464 100.114 132 98.8912 132 97.6161C132 96.3411 131.464 95.1182 130.509 94.2166C129.555 93.315 128.26 92.8084 126.91 92.8084H125.213M70.9191 92.8084H125.213M70.9191 92.8084V64.6033C70.9191 61.0136 70.9191 59.2187 71.6589 57.8469C72.3104 56.6386 73.3454 55.661 74.6247 55.0456C76.0771 54.3469 77.9774 54.3469 81.7779 54.3469H114.354C118.155 54.3469 120.055 54.3469 121.504 55.0456C122.784 55.661 123.822 56.6386 124.473 57.8469C125.213 59.2155 125.213 61.0104 125.213 64.5937V92.8084M108.38 38.2727C114.644 38.2727 120.652 40.791 125.082 45.2736C129.511 49.7562 132 55.8358 132 62.1751C132 68.5144 129.511 74.5941 125.082 79.0767C120.652 83.5593 114.644 86.0775 108.38 86.0775H31.6153C23.9385 86.1013 16.5544 83.0983 11.0287 77.7053C5.50309 72.3123 2.27043 64.9535 2.01621 57.1891C1.76199 49.4247 4.50621 41.8654 9.66698 36.1141C14.8277 30.3628 21.9992 26.8718 29.6607 26.3813C33.4577 18.2542 39.7402 11.5807 47.578 7.34914C55.4157 3.1176 64.3917 1.55307 73.1767 2.88725C81.9618 4.22144 90.0886 8.38338 96.3536 14.7567C102.619 21.13 106.689 29.3758 107.961 38.2727H108.38Z" stroke="black" stroke-width="4" stroke-linecap="round" stroke-linejoin="round"/>
</svg>
