<svg width="103" height="79" viewBox="0 0 103 79" fill="none" xmlns="http://www.w3.org/2000/svg">
<path d="M54.4544 69.7885H53.1754C52.1577 69.7885 51.1817 70.1684 50.4621 70.8446C49.7425 71.5208 49.3382 72.4379 49.3382 73.3942C49.3382 74.3505 49.7425 75.2677 50.4621 75.9439C51.1817 76.6201 52.1577 77 53.1754 77H96.6629C97.6805 77 98.6565 76.6201 99.3761 75.9439C100.096 75.2677 100.5 74.3505 100.5 73.3942C100.5 72.4379 100.096 71.5208 99.3761 70.8446C98.6565 70.1684 97.6805 69.7885 96.6629 69.7885H95.3838M54.4544 69.7885H95.3838M54.4544 69.7885V48.6346C54.4544 45.9423 54.4544 44.5962 55.0121 43.5673C55.5032 42.6611 56.2834 41.9279 57.2478 41.4663C58.3427 40.9423 59.7752 40.9423 62.6403 40.9423H87.1979C90.063 40.9423 91.4955 40.9423 92.5878 41.4663C93.5522 41.9279 94.335 42.6611 94.8262 43.5673C95.3838 44.5938 95.3838 45.9399 95.3838 48.6274V69.7885M82.6942 28.8867C87.4166 28.8867 91.9456 30.7754 95.2848 34.1373C98.624 37.4992 100.5 42.059 100.5 46.8135C100.5 51.568 98.624 56.1277 95.2848 59.4896C91.9456 62.8516 87.4166 64.7403 82.6942 64.7403H24.8254C19.0382 64.7581 13.4718 62.5059 9.30628 58.4611C5.14079 54.4164 2.70386 48.8972 2.51222 43.0739C2.32058 37.2507 4.3893 31.5812 8.27972 27.2677C12.1701 22.9542 17.5763 20.336 23.3519 19.9681C26.2143 13.8728 30.9503 8.86763 36.8588 5.69398C42.7672 2.52033 49.5338 1.34693 56.1563 2.34757C62.7789 3.34821 68.9052 6.46967 73.6281 11.2497C78.3509 16.0296 81.4191 22.2139 82.3782 28.8867H82.6942Z" stroke="black" stroke-width="4" stroke-linecap="round" stroke-linejoin="round"/>
</svg>
