<svg width="107" height="97" viewBox="0 0 107 97" fill="none" xmlns="http://www.w3.org/2000/svg">
<path d="M27.0914 67.9753C33.2499 72.9132 40.8442 75.8736 48.8203 76.4457C56.7965 77.0177 64.7588 75.1729 71.6023 71.1674C78.4458 67.1619 83.831 61.1943 87.0105 54.0928C90.19 46.9914 91.0061 39.1083 89.3455 31.5377M27.0914 67.9753C36.5041 65.8927 47.708 61.5459 59.0032 55.2377C72.1474 47.8953 82.8408 39.3275 89.3455 31.5377M27.0914 67.9753C15.3917 70.561 6.45559 69.6618 3.50899 64.7233C0.475732 59.6404 4.45267 51.3662 13.1384 42.5701M89.3455 31.5377C88.0695 25.7203 85.3734 20.2782 81.4824 15.6748C77.5915 11.0714 72.6187 7.4358 66.9793 5.07166C61.34 2.70752 55.1979 1.68348 49.0661 2.08509C42.9343 2.4867 36.9908 4.30229 31.7321 7.38021C26.4734 10.4581 22.0523 14.709 18.8379 19.7778C15.6235 24.8465 13.7092 30.586 13.255 36.5167C12.8007 42.4474 13.8197 48.3973 16.2268 53.8692C18.6338 59.3411 22.3591 64.1762 27.0914 67.9706M89.3455 31.5377C95.3735 24.3164 97.8001 17.7613 95.2387 13.475C92.6436 9.12826 85.4022 7.90762 75.7295 9.44507M93.4844 70.0123L84.6719 78.4491L80.2656 74.2307M104.5 72.4695C104.5 86.3228 93.5549 92.5343 88.9151 94.5444L88.9085 94.5486C88.4216 94.7595 88.177 94.865 87.6219 94.9557C87.2694 95.0148 86.4806 95.0148 86.1303 94.9557C85.6789 94.8835 85.2419 94.7448 84.8349 94.5444C80.1951 92.5343 69.25 86.3228 69.25 72.4695V64.1066C69.25 61.7443 69.25 60.5631 69.7303 59.6604C70.1533 58.8652 70.8252 58.2219 71.6558 57.8169C72.5987 57.3571 73.8325 57.3571 76.3 57.3571H97.45C99.9175 57.3571 101.151 57.3571 102.092 57.8169C102.923 58.2219 103.597 58.8652 104.02 59.6604C104.5 60.561 104.5 61.7422 104.5 64.1002V72.4695Z" stroke="black" stroke-width="4" stroke-linecap="round" stroke-linejoin="round"/>
</svg>
