<svg width="140" height="130" viewBox="0 0 140 130" fill="none" xmlns="http://www.w3.org/2000/svg">
<path d="M34.7885 91.3858C42.9999 98.076 53.1256 102.087 63.7605 102.862C74.3953 103.637 85.0118 101.137 94.1364 95.7107C103.261 90.2838 110.441 82.1987 114.681 72.5774C118.92 62.9561 120.008 52.2758 117.794 42.0189M34.7885 91.3858C47.3389 88.5643 62.2773 82.6751 77.3377 74.1285C94.8632 64.1807 109.121 52.5727 117.794 42.0189M34.7885 91.3858C19.1889 94.889 7.27412 93.6708 3.34533 86.98C-0.699023 80.0935 4.60357 68.8832 16.1845 56.9659M117.794 42.0189C116.093 34.1372 112.498 26.764 107.31 20.5271C102.122 14.2903 95.4915 9.36463 87.9724 6.1616C80.4533 2.95857 72.2638 1.57117 64.0881 2.11529C55.9124 2.6594 47.9877 5.11924 40.9762 9.28932C33.9646 13.4594 28.0697 19.2187 23.7838 26.086C19.498 32.9533 16.9456 40.7294 16.3399 48.7646C15.7343 56.7998 17.0929 64.8608 20.3023 72.2743C23.5118 79.6879 28.4788 86.2387 34.7885 91.3795M117.794 42.0189C125.831 32.2351 129.067 23.354 125.652 17.5468C122.191 11.6576 112.536 10.0039 99.6394 12.0869M123.312 94.1457L111.562 105.576L105.688 99.861M138 97.4749C138 116.244 123.406 124.659 117.22 127.383L117.211 127.388C116.562 127.674 116.236 127.817 115.496 127.94C115.026 128.02 113.974 128.02 113.507 127.94C112.905 127.842 112.323 127.654 111.78 127.383C105.594 124.659 91 116.244 91 97.4749V86.1444C91 82.9439 91 81.3436 91.6404 80.1205C92.2044 79.0432 93.1003 78.1716 94.2077 77.623C95.465 77 97.11 77 100.4 77H128.6C131.89 77 133.535 77 134.789 77.623C135.897 78.1716 136.796 79.0432 137.36 80.1205C138 81.3407 138 82.941 138 86.1358V97.4749Z" stroke="black" stroke-width="4" stroke-linecap="round" stroke-linejoin="round"/>
</svg>
