<svg width="160" height="136" viewBox="0 0 160 136" fill="none" xmlns="http://www.w3.org/2000/svg">
<path d="M74.129 70.3643V133.424M74.129 70.3643H43.3763C39.4624 70.3643 37.5054 70.3643 36.0097 71.1281C34.6946 71.7998 33.6254 72.8716 32.9554 74.1899C32.1935 75.6894 32.1935 77.6512 32.1935 81.5749V133.424H74.129M74.129 70.3643V32.5286C74.129 28.6049 74.129 26.6431 74.8909 25.1437C75.5609 23.8253 76.6301 22.7535 77.9452 22.0818C79.4409 21.3181 81.3978 21.3181 85.3118 21.3181H104.882C108.796 21.3181 110.753 21.3181 112.248 22.0818C113.562 22.7544 114.625 23.8264 115.303 25.1437C116.065 26.6431 116.065 28.6049 116.065 32.5286V49.3445M74.129 133.424H116.065M116.065 49.3445H146.817C150.731 49.3445 152.688 49.3445 154.191 50.1082C155.502 50.7812 156.566 51.8531 157.231 53.1701C158 54.6695 158 56.6314 158 60.5551V133.424H116.065M116.065 49.3445V133.424M32.1936 2.42383C26.2218 2.42383 20.3842 4.19683 15.4189 7.51863C10.4536 10.8404 6.58364 15.5618 4.29836 21.0858C2.01308 26.6097 1.41515 32.6881 2.58017 38.5523C3.7452 44.4165 6.62085 49.8031 10.8435 54.031C15.0661 58.2588 20.4461 61.138 26.3031 62.3045C32.1601 63.4709 38.231 62.8723 43.7481 60.5842C49.2653 58.2961 53.9809 54.4213 57.2986 49.4499C60.6163 44.4785 62.3871 38.6337 62.3871 32.6546M32.1936 2.42383C40.2014 2.42383 47.8812 5.60885 53.5436 11.2782C59.206 16.9476 62.3871 24.6369 62.3871 32.6546M32.1936 2.42383V32.6546M62.3871 32.6546H32.1936M32.1936 32.6546L52.3226 54.4879" stroke="black" stroke-width="4" stroke-linecap="round" stroke-linejoin="round"/>
</svg>
