<svg width="102" height="85" viewBox="0 0 102 85" fill="none" xmlns="http://www.w3.org/2000/svg">
<path d="M47.3118 44.009V83M47.3118 44.009H27.9928C25.5341 44.009 24.3047 44.009 23.3651 44.4812C22.5389 44.8966 21.8673 45.5593 21.4463 46.3745C20.9677 47.3016 20.9677 48.5146 20.9677 50.9407V83H47.3118M47.3118 44.009V20.6144C47.3118 18.1883 47.3118 16.9753 47.7904 16.0481C48.2114 15.233 48.883 14.5703 49.7091 14.1549C50.6487 13.6827 51.8781 13.6827 54.3369 13.6827H66.6308C69.0896 13.6827 70.319 13.6827 71.2586 14.1549C72.0841 14.5708 72.7514 15.2337 73.1773 16.0481C73.6559 16.9753 73.6559 18.1883 73.6559 20.6144V31.012M47.3118 83H73.6559M73.6559 31.012H92.9749C95.4337 31.012 96.6631 31.012 97.6071 31.4842C98.4305 31.9003 99.0991 32.5631 99.517 33.3775C100 34.3046 100 35.5176 100 37.9438V83H73.6559M73.6559 31.012V83M20.9677 2C17.2163 2 13.5491 3.09628 10.4298 5.15022C7.31061 7.20416 4.87946 10.1235 3.44384 13.5391C2.00822 16.9546 1.63259 20.713 2.36447 24.339C3.09634 27.9649 4.90284 31.2956 7.55553 33.9098C10.2082 36.5239 13.5879 38.3042 17.2673 39.0254C20.9467 39.7467 24.7605 39.3765 28.2264 37.9617C31.6923 36.547 34.6546 34.1511 36.7388 31.0772C38.823 28.0033 39.9355 24.3893 39.9355 20.6923M20.9677 2C25.9983 2 30.8228 3.96936 34.38 7.47485C37.9371 10.9803 39.9355 15.7348 39.9355 20.6923M20.9677 2V20.6923M39.9355 20.6923H20.9677M20.9677 20.6923L33.6129 34.1923" stroke="black" stroke-width="4" stroke-linecap="round" stroke-linejoin="round"/>
</svg>
