<svg width="138" height="85" viewBox="0 0 138 85" fill="none" xmlns="http://www.w3.org/2000/svg">
<path d="M108.9 62.4738H115.55M49.05 62.4738H88.95M29.1 62.4738H22.45M22.45 42.5238H115.55M22.45 22.5738H115.55M2.5 61.1438V23.9038C2.5 16.4558 2.5 12.7318 3.9497 9.88558C5.2265 7.37853 7.25475 5.35028 9.7618 4.07348C12.608 2.62378 16.332 2.62378 23.78 2.62378H114.22C121.668 2.62378 125.392 2.62378 128.232 4.07348C130.739 5.35028 132.773 7.37853 134.05 9.88558C135.5 12.7251 135.5 16.4491 135.5 23.8838V61.1637C135.5 68.5984 135.5 72.3158 134.05 75.1553C132.773 77.6604 130.737 79.6973 128.232 80.9741C125.392 82.4238 121.675 82.4238 114.24 82.4238H23.7601C16.3254 82.4238 12.6014 82.4238 9.7618 80.9741C7.25861 79.6969 5.22404 77.66 3.9497 75.1553C2.5 72.3158 2.5 68.5918 2.5 61.1438Z" stroke="black" stroke-width="4" stroke-linecap="round" stroke-linejoin="round"/>
</svg>
