<svg width="102" height="68" viewBox="0 0 102 68" fill="none" xmlns="http://www.w3.org/2000/svg">
<path d="M80.1 49.75H84.95M36.45 49.75H65.55M21.9 49.75H17.05M17.05 34H84.95M17.05 18.25H84.95M2.5 48.7V19.3C2.5 13.42 2.5 10.48 3.5573 8.233C4.4885 6.25375 5.96775 4.6525 7.7962 3.6445C9.872 2.5 12.588 2.5 18.02 2.5H83.98C89.412 2.5 92.128 2.5 94.1989 3.6445C96.0274 4.6525 97.5115 6.25375 98.4427 8.233C99.5 10.4747 99.5 13.4147 99.5 19.2842V48.7158C99.5 54.5853 99.5 57.52 98.4427 59.7617C97.5115 61.7395 96.026 63.3475 94.1989 64.3555C92.128 65.5 89.4168 65.5 83.9945 65.5H18.0054C12.5831 65.5 9.86715 65.5 7.7962 64.3555C5.97057 63.3472 4.48671 61.7391 3.5573 59.7617C2.5 57.52 2.5 54.58 2.5 48.7Z" stroke="black" stroke-width="4" stroke-linecap="round" stroke-linejoin="round"/>
</svg>
