<svg width="128" height="119" viewBox="0 0 128 119" fill="none" xmlns="http://www.w3.org/2000/svg">
<mask id="path-1-inside-1_51_564" fill="white">
<path fill-rule="evenodd" clip-rule="evenodd" d="M116.837 0H11.1631C5.3299 0 0.595715 4.78364 0.595715 10.6778V53.3889C0.592459 55.5713 1.2545 57.7017 2.49181 59.4905C1.25391 61.2782 0.595715 63.4077 0.595715 65.5921V108.303C0.595715 111.135 1.70906 113.851 3.69083 115.854C5.6726 117.856 8.36046 118.981 11.1631 118.981H116.837C119.64 118.981 122.327 117.856 124.309 115.854C126.291 113.851 127.404 111.135 127.404 108.303V65.5921C127.404 63.3223 126.704 61.2233 125.508 59.4905C126.704 57.7576 127.404 55.6587 127.404 53.3889V10.6778C127.404 4.78364 122.67 0 116.837 0ZM10.0956 64.5135C10.3787 64.2274 10.7627 64.0667 11.1631 64.0667H116.837C117.237 64.0667 117.621 64.2274 117.904 64.5135C118.188 64.7995 118.347 65.1875 118.347 65.5921V108.303C118.347 108.708 118.188 109.096 117.904 109.382C117.621 109.668 117.237 109.829 116.837 109.829H11.1631C10.3298 109.829 9.65348 109.145 9.65348 108.303V65.5921C9.65348 65.1875 9.81253 64.7995 10.0956 64.5135ZM116.837 54.9143H11.1631C10.3298 54.9143 9.65348 54.2309 9.65348 53.3889V10.6778C9.65348 10.2732 9.81253 9.88523 10.0956 9.59916C10.3787 9.31309 10.7627 9.15238 11.1631 9.15238H116.837C117.237 9.15238 117.621 9.31309 117.904 9.59916C118.188 9.88523 118.347 10.2732 118.347 10.6778V53.3889C118.347 53.7935 118.188 54.1814 117.904 54.4675C117.621 54.7536 117.237 54.9143 116.837 54.9143ZM53.0835 29.4898C53.946 28.651 55.1157 28.1797 56.3353 28.1797H96.1913C97.411 28.1797 98.5807 28.651 99.4432 29.4898C100.306 30.3287 100.79 31.4664 100.79 32.6527C100.79 33.839 100.306 34.9767 99.4432 35.8156C98.5807 36.6544 97.411 37.1257 96.1913 37.1257H56.3353C55.1157 37.1257 53.946 36.6544 53.0835 35.8156C52.2211 34.9767 51.7366 33.839 51.7366 32.6527C51.7366 31.4664 52.2211 30.3287 53.0835 29.4898ZM28.5567 29.4898C27.6943 30.3287 27.2098 31.4664 27.2098 32.6527C27.2098 33.839 27.6943 34.9767 28.5567 35.8156C29.4192 36.6544 30.5889 37.1257 31.8086 37.1257H34.8744C36.0941 37.1257 37.2638 36.6544 38.1262 35.8156C38.9887 34.9767 39.4732 33.839 39.4732 32.6527C39.4732 31.4664 38.9887 30.3287 38.1262 29.4898C37.2638 28.651 36.0941 28.1797 34.8744 28.1797H31.8086C30.5889 28.1797 29.4192 28.651 28.5567 29.4898ZM53.0835 83.1655C52.2211 84.0043 51.7366 85.142 51.7366 86.3283C51.7366 87.5146 52.2211 88.6524 53.0835 89.4912C53.946 90.33 55.1157 90.8013 56.3353 90.8013H96.1913C97.411 90.8013 98.5807 90.33 99.4432 89.4912C100.306 88.6524 100.79 87.5146 100.79 86.3283C100.79 85.142 100.306 84.0043 99.4432 83.1655C98.5807 82.3266 97.411 81.8554 96.1913 81.8554H56.3353C55.1157 81.8554 53.946 82.3266 53.0835 83.1655ZM28.5567 83.1655C29.4192 82.3266 30.5889 81.8554 31.8086 81.8554H34.8744C36.0941 81.8554 37.2638 82.3266 38.1262 83.1655C38.9887 84.0043 39.4732 85.142 39.4732 86.3283C39.4732 87.5146 38.9887 88.6524 38.1262 89.4912C37.2638 90.33 36.0941 90.8013 34.8744 90.8013H31.8086C30.5889 90.8013 29.4192 90.33 28.5567 89.4912C27.6943 88.6524 27.2098 87.5146 27.2098 86.3283C27.2098 85.142 27.6943 84.0043 28.5567 83.1655Z"/>
</mask>
<path fill-rule="evenodd" clip-rule="evenodd" d="M116.837 0H11.1631C5.3299 0 0.595715 4.78364 0.595715 10.6778V53.3889C0.592459 55.5713 1.2545 57.7017 2.49181 59.4905C1.25391 61.2782 0.595715 63.4077 0.595715 65.5921V108.303C0.595715 111.135 1.70906 113.851 3.69083 115.854C5.6726 117.856 8.36046 118.981 11.1631 118.981H116.837C119.64 118.981 122.327 117.856 124.309 115.854C126.291 113.851 127.404 111.135 127.404 108.303V65.5921C127.404 63.3223 126.704 61.2233 125.508 59.4905C126.704 57.7576 127.404 55.6587 127.404 53.3889V10.6778C127.404 4.78364 122.67 0 116.837 0ZM10.0956 64.5135C10.3787 64.2274 10.7627 64.0667 11.1631 64.0667H116.837C117.237 64.0667 117.621 64.2274 117.904 64.5135C118.188 64.7995 118.347 65.1875 118.347 65.5921V108.303C118.347 108.708 118.188 109.096 117.904 109.382C117.621 109.668 117.237 109.829 116.837 109.829H11.1631C10.3298 109.829 9.65348 109.145 9.65348 108.303V65.5921C9.65348 65.1875 9.81253 64.7995 10.0956 64.5135ZM116.837 54.9143H11.1631C10.3298 54.9143 9.65348 54.2309 9.65348 53.3889V10.6778C9.65348 10.2732 9.81253 9.88523 10.0956 9.59916C10.3787 9.31309 10.7627 9.15238 11.1631 9.15238H116.837C117.237 9.15238 117.621 9.31309 117.904 9.59916C118.188 9.88523 118.347 10.2732 118.347 10.6778V53.3889C118.347 53.7935 118.188 54.1814 117.904 54.4675C117.621 54.7536 117.237 54.9143 116.837 54.9143ZM53.0835 29.4898C53.946 28.651 55.1157 28.1797 56.3353 28.1797H96.1913C97.411 28.1797 98.5807 28.651 99.4432 29.4898C100.306 30.3287 100.79 31.4664 100.79 32.6527C100.79 33.839 100.306 34.9767 99.4432 35.8156C98.5807 36.6544 97.411 37.1257 96.1913 37.1257H56.3353C55.1157 37.1257 53.946 36.6544 53.0835 35.8156C52.2211 34.9767 51.7366 33.839 51.7366 32.6527C51.7366 31.4664 52.2211 30.3287 53.0835 29.4898ZM28.5567 29.4898C27.6943 30.3287 27.2098 31.4664 27.2098 32.6527C27.2098 33.839 27.6943 34.9767 28.5567 35.8156C29.4192 36.6544 30.5889 37.1257 31.8086 37.1257H34.8744C36.0941 37.1257 37.2638 36.6544 38.1262 35.8156C38.9887 34.9767 39.4732 33.839 39.4732 32.6527C39.4732 31.4664 38.9887 30.3287 38.1262 29.4898C37.2638 28.651 36.0941 28.1797 34.8744 28.1797H31.8086C30.5889 28.1797 29.4192 28.651 28.5567 29.4898ZM53.0835 83.1655C52.2211 84.0043 51.7366 85.142 51.7366 86.3283C51.7366 87.5146 52.2211 88.6524 53.0835 89.4912C53.946 90.33 55.1157 90.8013 56.3353 90.8013H96.1913C97.411 90.8013 98.5807 90.33 99.4432 89.4912C100.306 88.6524 100.79 87.5146 100.79 86.3283C100.79 85.142 100.306 84.0043 99.4432 83.1655C98.5807 82.3266 97.411 81.8554 96.1913 81.8554H56.3353C55.1157 81.8554 53.946 82.3266 53.0835 83.1655ZM28.5567 83.1655C29.4192 82.3266 30.5889 81.8554 31.8086 81.8554H34.8744C36.0941 81.8554 37.2638 82.3266 38.1262 83.1655C38.9887 84.0043 39.4732 85.142 39.4732 86.3283C39.4732 87.5146 38.9887 88.6524 38.1262 89.4912C37.2638 90.33 36.0941 90.8013 34.8744 90.8013H31.8086C30.5889 90.8013 29.4192 90.33 28.5567 89.4912C27.6943 88.6524 27.2098 87.5146 27.2098 86.3283C27.2098 85.142 27.6943 84.0043 28.5567 83.1655Z" fill="black"/>
<path d="M0.595715 53.3889L2.59572 53.3919V53.3889H0.595715ZM2.49181 59.4905L4.1361 60.629L4.92405 59.4911L4.13665 58.3527L2.49181 59.4905ZM124.309 115.854L125.731 117.26H125.731L124.309 115.854ZM125.508 59.4905L123.862 58.3547L123.078 59.4905L123.862 60.6263L125.508 59.4905ZM10.0956 64.5135L11.5172 65.9203L11.5172 65.9203L10.0956 64.5135ZM117.904 64.5135L116.483 65.9203L116.483 65.9203L117.904 64.5135ZM117.904 109.382L119.326 110.789L119.326 110.789L117.904 109.382ZM10.0956 9.59916L8.67409 8.19231L8.67409 8.19232L10.0956 9.59916ZM117.904 9.59916L119.326 8.19231V8.19231L117.904 9.59916ZM53.0835 29.4898L51.689 28.0562L51.689 28.0562L53.0835 29.4898ZM99.4432 29.4898L100.838 28.0562L100.838 28.0562L99.4432 29.4898ZM99.4432 35.8156L100.838 37.2493L100.838 37.2493L99.4432 35.8156ZM53.0835 35.8156L51.689 37.2493L51.689 37.2493L53.0835 35.8156ZM28.5567 29.4898L29.9512 30.9235L29.9512 30.9235L28.5567 29.4898ZM28.5567 35.8156L29.9512 34.3819L29.9512 34.3819L28.5567 35.8156ZM53.0835 83.1655L51.689 81.7318H51.689L53.0835 83.1655ZM53.0835 89.4912L51.689 90.9249H51.689L53.0835 89.4912ZM99.4432 89.4912L100.838 90.9249L100.838 90.9249L99.4432 89.4912ZM99.4432 83.1655L100.838 81.7318L100.838 81.7318L99.4432 83.1655ZM28.5567 83.1655L29.9512 84.5992H29.9512L28.5567 83.1655ZM28.5567 89.4912L29.9512 88.0575H29.9512L28.5567 89.4912ZM11.1631 2H116.837V-2H11.1631V2ZM2.59572 10.6778C2.59572 5.86857 6.45402 2 11.1631 2V-2C4.20579 -2 -1.40428 3.69872 -1.40428 10.6778H2.59572ZM2.59572 53.3889V10.6778H-1.40428V53.3889H2.59572ZM4.13665 58.3527C3.13203 56.9003 2.59306 55.1682 2.59571 53.3919L-1.40428 53.3859C-1.40814 55.9744 -0.623034 58.5031 0.846959 60.6282L4.13665 58.3527ZM2.59572 65.5921C2.59572 63.8092 3.13285 62.0779 4.1361 60.629L0.847512 58.3519C-0.625029 60.4786 -1.40428 63.0062 -1.40428 65.5921H2.59572ZM2.59572 108.303V65.5921H-1.40428V108.303H2.59572ZM5.11237 114.447C3.50334 112.821 2.59572 110.611 2.59572 108.303H-1.40428C-1.40428 111.659 -0.0852184 114.881 2.26929 117.26L5.11237 114.447ZM11.1631 116.981C8.89764 116.981 6.72071 116.072 5.11237 114.447L2.26929 117.26C4.62449 119.64 7.82327 120.981 11.1631 120.981V116.981ZM116.837 116.981H11.1631V120.981H116.837V116.981ZM122.888 114.447C121.279 116.072 119.102 116.981 116.837 116.981V120.981C120.177 120.981 123.376 119.64 125.731 117.26L122.888 114.447ZM125.404 108.303C125.404 110.611 124.497 112.821 122.888 114.447L125.731 117.26C128.085 114.881 129.404 111.659 129.404 108.303H125.404ZM125.404 65.5921V108.303H129.404V65.5921H125.404ZM123.862 60.6263C124.835 62.036 125.404 63.7409 125.404 65.5921H129.404C129.404 62.9036 128.573 60.4107 127.154 58.3547L123.862 60.6263ZM125.404 53.3889C125.404 55.24 124.835 56.945 123.862 58.3547L127.154 60.6263C128.573 58.5703 129.404 56.0773 129.404 53.3889H125.404ZM125.404 10.6778V53.3889H129.404V10.6778H125.404ZM116.837 2C121.546 2 125.404 5.86857 125.404 10.6778H129.404C129.404 3.69872 123.794 -2 116.837 -2V2ZM11.1631 62.0667C10.2256 62.0667 9.33064 62.4432 8.67408 63.1066L11.5172 65.9203C11.4268 66.0116 11.2999 66.0667 11.1631 66.0667V62.0667ZM116.837 62.0667H11.1631V66.0667H116.837V62.0667ZM119.326 63.1066C118.669 62.4432 117.775 62.0667 116.837 62.0667V66.0667C116.7 66.0667 116.573 66.0116 116.483 65.9203L119.326 63.1066ZM120.347 65.5921C120.347 64.6637 119.982 63.7693 119.326 63.1066L116.483 65.9203C116.393 65.8297 116.347 65.7113 116.347 65.5921H120.347ZM120.347 108.303V65.5921H116.347V108.303H120.347ZM119.326 110.789C119.982 110.126 120.347 109.232 120.347 108.303H116.347C116.347 108.184 116.393 108.066 116.483 107.975L119.326 110.789ZM116.837 111.829C117.775 111.829 118.669 111.452 119.326 110.789L116.483 107.975C116.573 107.884 116.7 107.829 116.837 107.829V111.829ZM11.1631 111.829H116.837V107.829H11.1631V111.829ZM7.65348 108.303C7.65348 110.23 9.20567 111.829 11.1631 111.829V107.829C11.4539 107.829 11.6535 108.06 11.6535 108.303H7.65348ZM7.65348 65.5921V108.303H11.6535V65.5921H7.65348ZM8.6741 63.1066C8.01824 63.7693 7.65348 64.6637 7.65348 65.5921H11.6535C11.6535 65.7113 11.6068 65.8297 11.5172 65.9203L8.6741 63.1066ZM11.1631 56.9143H116.837V52.9143H11.1631V56.9143ZM7.65348 53.3889C7.65348 55.3158 9.20567 56.9143 11.1631 56.9143V52.9143C11.4539 52.9143 11.6535 53.146 11.6535 53.3889H7.65348ZM7.65348 10.6778V53.3889H11.6535V10.6778H7.65348ZM8.67409 8.19232C8.01825 8.85501 7.65348 9.74945 7.65348 10.6778H11.6535C11.6535 10.797 11.6068 10.9154 11.5172 11.006L8.67409 8.19232ZM11.1631 7.15238C10.2255 7.15238 9.33064 7.52891 8.67409 8.19231L11.5172 11.006C11.4269 11.0973 11.2999 11.1524 11.1631 11.1524V7.15238ZM116.837 7.15238H11.1631V11.1524H116.837V7.15238ZM119.326 8.19231C118.669 7.52891 117.775 7.15238 116.837 7.15238V11.1524C116.7 11.1524 116.573 11.0973 116.483 11.006L119.326 8.19231ZM120.347 10.6778C120.347 9.74945 119.982 8.85501 119.326 8.19231L116.483 11.006C116.393 10.9154 116.347 10.797 116.347 10.6778H120.347ZM120.347 53.3889V10.6778H116.347V53.3889H120.347ZM119.326 55.8744C119.982 55.2117 120.347 54.3172 120.347 53.3889H116.347C116.347 53.2697 116.393 53.1512 116.483 53.0607L119.326 55.8744ZM116.837 56.9143C117.775 56.9143 118.669 56.5378 119.326 55.8744L116.483 53.0607C116.573 52.9694 116.7 52.9143 116.837 52.9143V56.9143ZM56.3353 26.1797C54.6029 26.1797 52.9305 26.8486 51.689 28.0562L54.478 30.9235C54.9614 30.4534 55.6285 30.1797 56.3353 30.1797V26.1797ZM96.1913 26.1797H56.3353V30.1797H96.1913V26.1797ZM100.838 28.0562C99.5961 26.8486 97.9238 26.1797 96.1913 26.1797V30.1797C96.8982 30.1797 97.5653 30.4534 98.0487 30.9235L100.838 28.0562ZM102.79 32.6527C102.79 30.9178 102.081 29.2655 100.838 28.0562L98.0487 30.9235C98.5302 31.3918 98.7901 32.015 98.7901 32.6527H102.79ZM100.838 37.2493C102.081 36.0399 102.79 34.3876 102.79 32.6527H98.7901C98.7901 33.2904 98.5302 33.9136 98.0487 34.3819L100.838 37.2493ZM96.1913 39.1257C97.9238 39.1257 99.5961 38.4568 100.838 37.2493L98.0487 34.3819C97.5653 34.852 96.8982 35.1257 96.1913 35.1257V39.1257ZM56.3353 39.1257H96.1913V35.1257H56.3353V39.1257ZM51.689 37.2493C52.9305 38.4568 54.6029 39.1257 56.3353 39.1257V35.1257C55.6285 35.1257 54.9614 34.852 54.478 34.3819L51.689 37.2493ZM49.7366 32.6527C49.7366 34.3876 50.4457 36.0399 51.689 37.2493L54.478 34.3819C53.9965 33.9136 53.7366 33.2904 53.7366 32.6527H49.7366ZM51.689 28.0562C50.4457 29.2655 49.7366 30.9178 49.7366 32.6527H53.7366C53.7366 32.015 53.9965 31.3919 54.478 30.9235L51.689 28.0562ZM29.2098 32.6527C29.2098 32.015 29.4697 31.3918 29.9512 30.9235L27.1623 28.0562C25.9189 29.2655 25.2098 30.9178 25.2098 32.6527H29.2098ZM29.9512 34.3819C29.4697 33.9136 29.2098 33.2904 29.2098 32.6527H25.2098C25.2098 34.3876 25.9189 36.0399 27.1623 37.2493L29.9512 34.3819ZM31.8086 35.1257C31.1017 35.1257 30.4346 34.852 29.9512 34.3819L27.1623 37.2493C28.4038 38.4568 30.0761 39.1257 31.8086 39.1257V35.1257ZM34.8744 35.1257H31.8086V39.1257H34.8744V35.1257ZM36.7318 34.3819C36.2484 34.852 35.5813 35.1257 34.8744 35.1257V39.1257C36.6069 39.1257 38.2792 38.4568 39.5207 37.2493L36.7318 34.3819ZM37.4732 32.6527C37.4732 33.2904 37.2132 33.9136 36.7318 34.3819L39.5207 37.2493C40.7641 36.0399 41.4732 34.3876 41.4732 32.6527H37.4732ZM36.7318 30.9235C37.2132 31.3918 37.4732 32.015 37.4732 32.6527H41.4732C41.4732 30.9178 40.7641 29.2655 39.5207 28.0562L36.7318 30.9235ZM34.8744 30.1797C35.5813 30.1797 36.2484 30.4534 36.7318 30.9235L39.5207 28.0562C38.2792 26.8486 36.6069 26.1797 34.8744 26.1797V30.1797ZM31.8086 30.1797H34.8744V26.1797H31.8086V30.1797ZM29.9512 30.9235C30.4346 30.4534 31.1017 30.1797 31.8086 30.1797V26.1797C30.0761 26.1797 28.4038 26.8486 27.1623 28.0562L29.9512 30.9235ZM53.7366 86.3283C53.7366 85.6907 53.9965 85.0675 54.478 84.5992L51.689 81.7318C50.4457 82.9412 49.7366 84.5934 49.7366 86.3283H53.7366ZM54.478 88.0575C53.9965 87.5892 53.7366 86.966 53.7366 86.3283H49.7366C49.7366 88.0633 50.4457 89.7155 51.689 90.9249L54.478 88.0575ZM56.3353 88.8013C55.6285 88.8013 54.9614 88.5277 54.478 88.0575L51.689 90.9249C52.9305 92.1324 54.6029 92.8013 56.3353 92.8013V88.8013ZM96.1913 88.8013H56.3353V92.8013H96.1913V88.8013ZM98.0487 88.0575C97.5653 88.5277 96.8982 88.8013 96.1913 88.8013V92.8013C97.9238 92.8013 99.5961 92.1324 100.838 90.9249L98.0487 88.0575ZM98.7901 86.3283C98.7901 86.966 98.5302 87.5892 98.0487 88.0575L100.838 90.9249C102.081 89.7155 102.79 88.0632 102.79 86.3283H98.7901ZM98.0487 84.5992C98.5302 85.0675 98.7901 85.6906 98.7901 86.3283H102.79C102.79 84.5934 102.081 82.9412 100.838 81.7318L98.0487 84.5992ZM96.1913 83.8554C96.8982 83.8554 97.5653 84.129 98.0487 84.5992L100.838 81.7318C99.5961 80.5243 97.9238 79.8554 96.1913 79.8554V83.8554ZM56.3353 83.8554H96.1913V79.8554H56.3353V83.8554ZM54.478 84.5992C54.9614 84.129 55.6285 83.8554 56.3353 83.8554V79.8554C54.6029 79.8554 52.9305 80.5243 51.689 81.7318L54.478 84.5992ZM31.8086 79.8554C30.0761 79.8554 28.4038 80.5243 27.1623 81.7318L29.9512 84.5992C30.4346 84.129 31.1017 83.8554 31.8086 83.8554V79.8554ZM34.8744 79.8554H31.8086V83.8554H34.8744V79.8554ZM39.5207 81.7318C38.2792 80.5243 36.6069 79.8554 34.8744 79.8554V83.8554C35.5813 83.8554 36.2484 84.129 36.7318 84.5992L39.5207 81.7318ZM41.4732 86.3283C41.4732 84.5934 40.7641 82.9412 39.5207 81.7318L36.7318 84.5992C37.2132 85.0675 37.4732 85.6906 37.4732 86.3283H41.4732ZM39.5207 90.9249C40.7641 89.7155 41.4732 88.0633 41.4732 86.3283H37.4732C37.4732 86.966 37.2132 87.5892 36.7318 88.0575L39.5207 90.9249ZM34.8744 92.8013C36.6069 92.8013 38.2792 92.1324 39.5207 90.9249L36.7318 88.0575C36.2484 88.5277 35.5813 88.8013 34.8744 88.8013V92.8013ZM31.8086 92.8013H34.8744V88.8013H31.8086V92.8013ZM27.1623 90.9249C28.4038 92.1324 30.0761 92.8013 31.8086 92.8013V88.8013C31.1017 88.8013 30.4346 88.5277 29.9512 88.0575L27.1623 90.9249ZM25.2098 86.3283C25.2098 88.0633 25.9189 89.7155 27.1623 90.9249L29.9512 88.0575C29.4697 87.5892 29.2098 86.966 29.2098 86.3283H25.2098ZM27.1623 81.7318C25.9189 82.9412 25.2098 84.5934 25.2098 86.3283H29.2098C29.2098 85.6906 29.4697 85.0675 29.9512 84.5992L27.1623 81.7318Z" fill="#E0EAFB" mask="url(#path-1-inside-1_51_564)"/>
</svg>
