<svg width="95" height="89" viewBox="0 0 95 89" fill="none" xmlns="http://www.w3.org/2000/svg">
<mask id="path-1-inside-1_51_534" fill="white">
<path fill-rule="evenodd" clip-rule="evenodd" d="M87.023 0H7.977C3.61366 0 0.0723966 3.57826 0.0723966 7.98718V39.9359C0.0699611 41.5684 0.56518 43.162 1.49071 44.5C0.564741 45.8373 0.0723966 47.4302 0.0723966 49.0641V81.0128C0.0723966 83.1312 0.905201 85.1627 2.3876 86.6606C3.87 88.1585 5.88057 89 7.977 89H87.023C89.1195 89 91.13 88.1585 92.6124 86.6606C94.0948 85.1627 94.9277 83.1312 94.9277 81.0128V49.0641C94.9277 47.3663 94.4037 45.7962 93.5093 44.5C94.4037 43.2038 94.9277 41.6337 94.9277 39.9359V7.98718C94.9277 3.57826 91.3864 0 87.023 0ZM7.17852 48.2573C7.39029 48.0433 7.67751 47.9231 7.977 47.9231H87.023C87.3225 47.9231 87.6098 48.0433 87.8215 48.2573C88.0333 48.4713 88.1523 48.7615 88.1523 49.0641V81.0128C88.1523 81.3154 88.0333 81.6057 87.8215 81.8196C87.6098 82.0336 87.3225 82.1538 87.023 82.1538H7.977C7.35367 82.1538 6.84777 81.6427 6.84777 81.0128V49.0641C6.84777 48.7615 6.96674 48.4713 7.17852 48.2573ZM87.023 41.0769H7.977C7.35367 41.0769 6.84777 40.5657 6.84777 39.9359V7.98718C6.84777 7.68456 6.96674 7.39434 7.17852 7.18035C7.39029 6.96637 7.67751 6.84615 7.977 6.84615H87.023C87.3225 6.84615 87.6098 6.96637 87.8215 7.18035C88.0333 7.39434 88.1523 7.68456 88.1523 7.98718V39.9359C88.1523 40.2385 88.0333 40.5287 87.8215 40.7427C87.6098 40.9567 87.3225 41.0769 87.023 41.0769ZM39.3343 22.059C39.9794 21.4315 40.8544 21.079 41.7667 21.079H71.5798C72.4921 21.079 73.3671 21.4315 74.0122 22.059C74.6573 22.6865 75.0197 23.5375 75.0197 24.4249C75.0197 25.3123 74.6573 26.1633 74.0122 26.7908C73.3671 27.4182 72.4921 27.7708 71.5798 27.7708H41.7667C40.8544 27.7708 39.9794 27.4182 39.3343 26.7908C38.6892 26.1633 38.3267 25.3123 38.3267 24.4249C38.3267 23.5375 38.6892 22.6865 39.3343 22.059ZM20.9878 22.059C20.3427 22.6865 19.9802 23.5375 19.9802 24.4249C19.9802 25.3123 20.3427 26.1633 20.9878 26.7908C21.6329 27.4182 22.5079 27.7708 23.4202 27.7708H25.7135C26.6259 27.7708 27.5008 27.4182 28.1459 26.7908C28.7911 26.1633 29.1535 25.3123 29.1535 24.4249C29.1535 23.5375 28.7911 22.6865 28.1459 22.059C27.5008 21.4315 26.6259 21.079 25.7135 21.079H23.4202C22.5079 21.079 21.6329 21.4315 20.9878 22.059ZM39.3343 62.2094C38.6892 62.8369 38.3267 63.6879 38.3267 64.5753C38.3267 65.4626 38.6892 66.3137 39.3343 66.9412C39.9794 67.5686 40.8544 67.9211 41.7667 67.9211H71.5798C72.4921 67.9211 73.3671 67.5686 74.0122 66.9412C74.6573 66.3137 75.0197 65.4626 75.0197 64.5753C75.0197 63.6879 74.6573 62.8369 74.0122 62.2094C73.3671 61.5819 72.4921 61.2294 71.5798 61.2294H41.7667C40.8544 61.2294 39.9794 61.5819 39.3343 62.2094ZM20.9878 62.2094C21.6329 61.5819 22.5079 61.2294 23.4202 61.2294H25.7135C26.6259 61.2294 27.5008 61.5819 28.1459 62.2094C28.7911 62.8369 29.1535 63.6879 29.1535 64.5753C29.1535 65.4626 28.7911 66.3137 28.1459 66.9412C27.5008 67.5686 26.6259 67.9211 25.7135 67.9211H23.4202C22.5079 67.9211 21.6329 67.5686 20.9878 66.9412C20.3427 66.3137 19.9802 65.4626 19.9802 64.5753C19.9802 63.6879 20.3427 62.8369 20.9878 62.2094Z"/>
</mask>
<path fill-rule="evenodd" clip-rule="evenodd" d="M87.023 0H7.977C3.61366 0 0.0723966 3.57826 0.0723966 7.98718V39.9359C0.0699611 41.5684 0.56518 43.162 1.49071 44.5C0.564741 45.8373 0.0723966 47.4302 0.0723966 49.0641V81.0128C0.0723966 83.1312 0.905201 85.1627 2.3876 86.6606C3.87 88.1585 5.88057 89 7.977 89H87.023C89.1195 89 91.13 88.1585 92.6124 86.6606C94.0948 85.1627 94.9277 83.1312 94.9277 81.0128V49.0641C94.9277 47.3663 94.4037 45.7962 93.5093 44.5C94.4037 43.2038 94.9277 41.6337 94.9277 39.9359V7.98718C94.9277 3.57826 91.3864 0 87.023 0ZM7.17852 48.2573C7.39029 48.0433 7.67751 47.9231 7.977 47.9231H87.023C87.3225 47.9231 87.6098 48.0433 87.8215 48.2573C88.0333 48.4713 88.1523 48.7615 88.1523 49.0641V81.0128C88.1523 81.3154 88.0333 81.6057 87.8215 81.8196C87.6098 82.0336 87.3225 82.1538 87.023 82.1538H7.977C7.35367 82.1538 6.84777 81.6427 6.84777 81.0128V49.0641C6.84777 48.7615 6.96674 48.4713 7.17852 48.2573ZM87.023 41.0769H7.977C7.35367 41.0769 6.84777 40.5657 6.84777 39.9359V7.98718C6.84777 7.68456 6.96674 7.39434 7.17852 7.18035C7.39029 6.96637 7.67751 6.84615 7.977 6.84615H87.023C87.3225 6.84615 87.6098 6.96637 87.8215 7.18035C88.0333 7.39434 88.1523 7.68456 88.1523 7.98718V39.9359C88.1523 40.2385 88.0333 40.5287 87.8215 40.7427C87.6098 40.9567 87.3225 41.0769 87.023 41.0769ZM39.3343 22.059C39.9794 21.4315 40.8544 21.079 41.7667 21.079H71.5798C72.4921 21.079 73.3671 21.4315 74.0122 22.059C74.6573 22.6865 75.0197 23.5375 75.0197 24.4249C75.0197 25.3123 74.6573 26.1633 74.0122 26.7908C73.3671 27.4182 72.4921 27.7708 71.5798 27.7708H41.7667C40.8544 27.7708 39.9794 27.4182 39.3343 26.7908C38.6892 26.1633 38.3267 25.3123 38.3267 24.4249C38.3267 23.5375 38.6892 22.6865 39.3343 22.059ZM20.9878 22.059C20.3427 22.6865 19.9802 23.5375 19.9802 24.4249C19.9802 25.3123 20.3427 26.1633 20.9878 26.7908C21.6329 27.4182 22.5079 27.7708 23.4202 27.7708H25.7135C26.6259 27.7708 27.5008 27.4182 28.1459 26.7908C28.7911 26.1633 29.1535 25.3123 29.1535 24.4249C29.1535 23.5375 28.7911 22.6865 28.1459 22.059C27.5008 21.4315 26.6259 21.079 25.7135 21.079H23.4202C22.5079 21.079 21.6329 21.4315 20.9878 22.059ZM39.3343 62.2094C38.6892 62.8369 38.3267 63.6879 38.3267 64.5753C38.3267 65.4626 38.6892 66.3137 39.3343 66.9412C39.9794 67.5686 40.8544 67.9211 41.7667 67.9211H71.5798C72.4921 67.9211 73.3671 67.5686 74.0122 66.9412C74.6573 66.3137 75.0197 65.4626 75.0197 64.5753C75.0197 63.6879 74.6573 62.8369 74.0122 62.2094C73.3671 61.5819 72.4921 61.2294 71.5798 61.2294H41.7667C40.8544 61.2294 39.9794 61.5819 39.3343 62.2094ZM20.9878 62.2094C21.6329 61.5819 22.5079 61.2294 23.4202 61.2294H25.7135C26.6259 61.2294 27.5008 61.5819 28.1459 62.2094C28.7911 62.8369 29.1535 63.6879 29.1535 64.5753C29.1535 65.4626 28.7911 66.3137 28.1459 66.9412C27.5008 67.5686 26.6259 67.9211 25.7135 67.9211H23.4202C22.5079 67.9211 21.6329 67.5686 20.9878 66.9412C20.3427 66.3137 19.9802 65.4626 19.9802 64.5753C19.9802 63.6879 20.3427 62.8369 20.9878 62.2094Z" fill="black"/>
<path d="M0.0723966 39.9359L1.0724 39.9374V39.9359H0.0723966ZM1.49071 44.5L2.31286 45.0693L2.70683 44.5003L2.31313 43.9311L1.49071 44.5ZM2.3876 86.6606L1.67683 87.364L2.3876 86.6606ZM93.5093 44.5L92.6863 43.9321L92.2944 44.5L92.6862 45.0679L93.5093 44.5ZM7.17852 48.2573L6.46775 47.5538L6.46774 47.5539L7.17852 48.2573ZM87.8215 48.2573L88.5323 47.5539L88.5323 47.5539L87.8215 48.2573ZM7.17852 7.18035L6.46775 6.47693L6.46774 6.47693L7.17852 7.18035ZM87.8215 7.18035L88.5323 6.47693V6.47693L87.8215 7.18035ZM87.8215 40.7427L87.1108 40.0393L87.1107 40.0393L87.8215 40.7427ZM74.0122 26.7908L74.7094 27.5076V27.5076L74.0122 26.7908ZM39.3343 26.7908L38.637 27.5076L38.6371 27.5076L39.3343 26.7908ZM20.9878 22.059L20.2906 21.3422V21.3422L20.9878 22.059ZM20.9878 26.7908L20.2906 27.5076L20.2906 27.5076L20.9878 26.7908ZM28.1459 26.7908L28.8432 27.5076L28.8432 27.5076L28.1459 26.7908ZM29.1535 24.4249L30.1535 24.4249V24.4249L29.1535 24.4249ZM20.9878 62.2094L20.2906 61.4925L20.9878 62.2094ZM29.1535 64.5753H30.1535H29.1535ZM20.9878 66.9412L20.2906 67.658L20.9878 66.9412ZM7.977 1H87.023V-1H7.977V1ZM1.0724 7.98718C1.0724 4.12072 4.17572 1 7.977 1V-1C3.0516 -1 -0.927603 3.03579 -0.927603 7.98718H1.0724ZM1.0724 39.9359V7.98718H-0.927603V39.9359H1.0724ZM2.31313 43.9311C1.50395 42.7613 1.07026 41.3668 1.0724 39.9374L-0.927602 39.9344C-0.930341 41.7699 -0.373587 43.5626 0.668285 45.0689L2.31313 43.9311ZM1.0724 49.0641C1.0724 47.6309 1.50421 46.2371 2.31286 45.0693L0.668561 43.9307C-0.37473 45.4374 -0.927603 47.2294 -0.927603 49.0641H1.0724ZM1.0724 81.0128V49.0641H-0.927603V81.0128H1.0724ZM3.09837 85.9572C1.80234 84.6476 1.0724 82.8693 1.0724 81.0128H-0.927603C-0.927603 83.393 0.00806107 85.6778 1.67683 87.364L3.09837 85.9572ZM7.977 88C6.14916 88 4.39406 87.2664 3.09837 85.9572L1.67683 87.364C3.34595 89.0506 5.61198 90 7.977 90V88ZM87.023 88H7.977V90H87.023V88ZM91.9017 85.9572C90.606 87.2664 88.8509 88 87.023 88V90C89.3881 90 91.6541 89.0506 93.3232 87.364L91.9017 85.9572ZM93.9277 81.0128C93.9277 82.8693 93.1977 84.6476 91.9017 85.9572L93.3232 87.364C94.992 85.6778 95.9277 83.393 95.9277 81.0128H93.9277ZM93.9277 49.0641V81.0128H95.9277V49.0641H93.9277ZM92.6862 45.0679C93.4691 46.2025 93.9277 47.5756 93.9277 49.0641H95.9277C95.9277 47.1569 95.3383 45.3899 94.3324 43.9321L92.6862 45.0679ZM93.9277 39.9359C93.9277 41.4244 93.4691 42.7975 92.6863 43.9321L94.3324 45.0679C95.3383 43.6101 95.9277 41.8431 95.9277 39.9359H93.9277ZM93.9277 7.98718V39.9359H95.9277V7.98718H93.9277ZM87.023 1C90.8243 1 93.9277 4.12072 93.9277 7.98718H95.9277C95.9277 3.0358 91.9484 -1 87.023 -1V1ZM7.977 46.9231C7.40892 46.9231 6.86623 47.1512 6.46775 47.5538L7.88928 48.9607C7.91434 48.9354 7.9461 48.9231 7.977 48.9231V46.9231ZM87.023 46.9231H7.977V48.9231H87.023V46.9231ZM88.5323 47.5539C88.1338 47.1512 87.5911 46.9231 87.023 46.9231V48.9231C87.0539 48.9231 87.0857 48.9354 87.1108 48.9607L88.5323 47.5539ZM89.1523 49.0641C89.1523 48.4996 88.9304 47.9562 88.5323 47.5539L87.1107 48.9607C87.1362 48.9864 87.1523 49.0234 87.1523 49.0641H89.1523ZM89.1523 81.0128V49.0641H87.1523V81.0128H89.1523ZM88.5323 82.5231C88.9304 82.1208 89.1523 81.5773 89.1523 81.0128H87.1523C87.1523 81.0536 87.1362 81.0906 87.1108 81.1162L88.5323 82.5231ZM87.023 83.1538C87.5911 83.1538 88.1338 82.9257 88.5323 82.5231L87.1108 81.1162C87.0857 81.1415 87.0539 81.1538 87.023 81.1538V83.1538ZM7.977 83.1538H87.023V81.1538H7.977V83.1538ZM5.84777 81.0128C5.84777 82.1851 6.79161 83.1538 7.977 83.1538V81.1538C7.91572 81.1538 7.84777 81.1002 7.84777 81.0128H5.84777ZM5.84777 49.0641V81.0128H7.84777V49.0641H5.84777ZM6.46774 47.5539C6.0696 47.9562 5.84777 48.4996 5.84777 49.0641H7.84777C7.84777 49.0234 7.86388 48.9864 7.88929 48.9607L6.46774 47.5539ZM7.977 42.0769H87.023V40.0769H7.977V42.0769ZM5.84777 39.9359C5.84777 41.1082 6.79161 42.0769 7.977 42.0769V40.0769C7.91572 40.0769 7.84777 40.0233 7.84777 39.9359H5.84777ZM5.84777 7.98718V39.9359H7.84777V7.98718H5.84777ZM6.46774 6.47693C6.0696 6.87923 5.84777 7.42268 5.84777 7.98718H7.84777C7.84777 7.94644 7.86388 7.90944 7.88929 7.88378L6.46774 6.47693ZM7.977 5.84615C7.40892 5.84615 6.86623 6.07428 6.46775 6.47693L7.88929 7.88378C7.91434 7.85846 7.9461 7.84615 7.977 7.84615V5.84615ZM87.023 5.84615H7.977V7.84615H87.023V5.84615ZM88.5323 6.47693C88.1338 6.07428 87.5911 5.84615 87.023 5.84615V7.84615C87.0539 7.84615 87.0857 7.85846 87.1108 7.88377L88.5323 6.47693ZM89.1523 7.98718C89.1523 7.42268 88.9304 6.87923 88.5323 6.47693L87.1108 7.88377C87.1362 7.90944 87.1523 7.94644 87.1523 7.98718H89.1523ZM89.1523 39.9359V7.98718H87.1523V39.9359H89.1523ZM88.5323 41.4461C88.9304 41.0438 89.1523 40.5004 89.1523 39.9359H87.1523C87.1523 39.9766 87.1362 40.0136 87.1108 40.0393L88.5323 41.4461ZM87.023 42.0769C87.5911 42.0769 88.1338 41.8488 88.5323 41.4461L87.1107 40.0393C87.0857 40.0646 87.054 40.0769 87.023 40.0769V42.0769ZM41.7667 20.079C40.598 20.079 39.4717 20.5303 38.637 21.3422L40.0315 22.7758C40.4871 22.3327 41.1108 22.079 41.7667 22.079V20.079ZM71.5798 20.079H41.7667V22.079H71.5798V20.079ZM74.7094 21.3422C73.8748 20.5303 72.7485 20.079 71.5798 20.079V22.079C72.2357 22.079 72.8594 22.3327 73.3149 22.7758L74.7094 21.3422ZM76.0197 24.4249C76.0197 23.2632 75.545 22.1549 74.7094 21.3422L73.3149 22.7758C73.7696 23.2181 74.0197 23.8118 74.0197 24.4249H76.0197ZM74.7094 27.5076C75.545 26.6949 76.0197 25.5866 76.0197 24.4249H74.0197C74.0197 25.038 73.7696 25.6317 73.3149 26.0739L74.7094 27.5076ZM71.5798 28.7708C72.7485 28.7708 73.8748 28.3194 74.7094 27.5076L73.3149 26.0739C72.8594 26.517 72.2357 26.7708 71.5798 26.7708V28.7708ZM41.7667 28.7708H71.5798V26.7708H41.7667V28.7708ZM38.6371 27.5076C39.4717 28.3194 40.598 28.7708 41.7667 28.7708V26.7708C41.1108 26.7708 40.4871 26.5171 40.0315 26.0739L38.6371 27.5076ZM37.3267 24.4249C37.3267 25.5866 37.8015 26.6949 38.637 27.5076L40.0315 26.0739C39.5769 25.6317 39.3267 25.038 39.3267 24.4249H37.3267ZM38.637 21.3422C37.8015 22.1549 37.3267 23.2632 37.3267 24.4249H39.3267C39.3267 23.8118 39.5769 23.2181 40.0315 22.7758L38.637 21.3422ZM20.9802 24.4249C20.9802 23.8118 21.2304 23.2181 21.685 22.7758L20.2906 21.3422C19.455 22.1549 18.9802 23.2632 18.9802 24.4249H20.9802ZM21.685 26.0739C21.2304 25.6317 20.9802 25.038 20.9802 24.4249H18.9802C18.9802 25.5866 19.455 26.6949 20.2906 27.5076L21.685 26.0739ZM23.4202 26.7708C22.7643 26.7708 22.1406 26.5171 21.685 26.0739L20.2906 27.5076C21.1252 28.3194 22.2515 28.7708 23.4202 28.7708V26.7708ZM25.7135 26.7708H23.4202V28.7708H25.7135V26.7708ZM27.4487 26.0739C26.9931 26.5171 26.3695 26.7708 25.7135 26.7708V28.7708C26.8823 28.7708 28.0085 28.3194 28.8432 27.5076L27.4487 26.0739ZM28.1535 24.4249C28.1535 25.038 27.9034 25.6317 27.4487 26.0739L28.8432 27.5076C29.6788 26.6949 30.1535 25.5866 30.1535 24.4249L28.1535 24.4249ZM27.4487 22.7758C27.9034 23.2181 28.1535 23.8118 28.1535 24.4249L30.1535 24.4249C30.1535 23.2632 29.6788 22.1549 28.8432 21.3422L27.4487 22.7758ZM25.7135 22.079C26.3695 22.079 26.9931 22.3327 27.4487 22.7758L28.8432 21.3422C28.0085 20.5303 26.8823 20.079 25.7135 20.079V22.079ZM23.4202 22.079H25.7135V20.079H23.4202V22.079ZM21.685 22.7758C22.1406 22.3327 22.7643 22.079 23.4202 22.079V20.079C22.2515 20.079 21.1252 20.5303 20.2906 21.3422L21.685 22.7758ZM39.3267 64.5753C39.3267 63.9622 39.5769 63.3684 40.0315 62.9262L38.637 61.4925C37.8015 62.3053 37.3267 63.4136 37.3267 64.5753H39.3267ZM40.0315 66.2243C39.5769 65.7821 39.3267 65.1883 39.3267 64.5753H37.3267C37.3267 65.737 37.8015 66.8453 38.637 67.658L40.0315 66.2243ZM41.7667 66.9211C41.1108 66.9211 40.4871 66.6674 40.0315 66.2243L38.637 67.658C39.4717 68.4698 40.598 68.9211 41.7667 68.9211V66.9211ZM71.5798 66.9211H41.7667V68.9211H71.5798V66.9211ZM73.3149 66.2243C72.8594 66.6674 72.2357 66.9211 71.5798 66.9211V68.9211C72.7485 68.9211 73.8748 68.4698 74.7094 67.658L73.3149 66.2243ZM74.0197 64.5753C74.0197 65.1883 73.7696 65.7821 73.3149 66.2243L74.7094 67.658C75.545 66.8453 76.0197 65.737 76.0197 64.5753H74.0197ZM73.3149 62.9262C73.7696 63.3684 74.0197 63.9622 74.0197 64.5753H76.0197C76.0197 63.4136 75.545 62.3053 74.7094 61.4925L73.3149 62.9262ZM71.5798 62.2294C72.2357 62.2294 72.8594 62.4831 73.3149 62.9262L74.7094 61.4925C73.8748 60.6807 72.7485 60.2294 71.5798 60.2294V62.2294ZM41.7667 62.2294H71.5798V60.2294H41.7667V62.2294ZM40.0315 62.9262C40.4871 62.4831 41.1108 62.2294 41.7667 62.2294V60.2294C40.598 60.2294 39.4717 60.6807 38.637 61.4925L40.0315 62.9262ZM23.4202 60.2294C22.2515 60.2294 21.1252 60.6807 20.2906 61.4925L21.685 62.9262C22.1406 62.4831 22.7643 62.2294 23.4202 62.2294V60.2294ZM25.7135 60.2294H23.4202V62.2294H25.7135V60.2294ZM28.8432 61.4925C28.0085 60.6807 26.8823 60.2294 25.7135 60.2294V62.2294C26.3695 62.2294 26.9931 62.4831 27.4487 62.9262L28.8432 61.4925ZM30.1535 64.5753C30.1535 63.4136 29.6788 62.3053 28.8432 61.4925L27.4487 62.9262C27.9034 63.3684 28.1535 63.9622 28.1535 64.5753H30.1535ZM28.8432 67.658C29.6788 66.8453 30.1535 65.737 30.1535 64.5753H28.1535C28.1535 65.1883 27.9034 65.7821 27.4487 66.2243L28.8432 67.658ZM25.7135 68.9211C26.8823 68.9211 28.0085 68.4698 28.8432 67.658L27.4487 66.2243C26.9931 66.6674 26.3695 66.9211 25.7135 66.9211V68.9211ZM23.4202 68.9211H25.7135V66.9211H23.4202V68.9211ZM20.2906 67.658C21.1252 68.4698 22.2515 68.9211 23.4202 68.9211V66.9211C22.7643 66.9211 22.1406 66.6674 21.685 66.2243L20.2906 67.658ZM18.9802 64.5753C18.9802 65.737 19.455 66.8453 20.2906 67.658L21.685 66.2243C21.2304 65.7821 20.9802 65.1883 20.9802 64.5753H18.9802ZM20.2906 61.4925C19.455 62.3053 18.9802 63.4136 18.9802 64.5753H20.9802C20.9802 63.9622 21.2304 63.3684 21.685 62.9262L20.2906 61.4925Z" fill="#E0EAFB" mask="url(#path-1-inside-1_51_534)"/>
</svg>
