<svg width="20" height="17" viewBox="0 0 20 17" fill="none" xmlns="http://www.w3.org/2000/svg">
<path d="M2 2.5L8.108 7.112L8.11 7.114C8.788 7.611 9.127 7.86 9.499 7.956C9.82759 8.04102 10.1724 8.04102 10.501 7.956C10.873 7.86 11.213 7.611 11.893 7.112C11.893 7.112 15.81 4.106 18 2.5M1 12.3V4.7C1 3.58 1 3.02 1.218 2.592C1.41 2.215 1.715 1.91 2.092 1.718C2.52 1.5 3.08 1.5 4.2 1.5H15.8C16.92 1.5 17.48 1.5 17.907 1.718C18.284 1.91 18.59 2.215 18.782 2.592C19 3.019 19 3.579 19 4.697V12.304C19 13.422 19 13.98 18.782 14.408C18.5899 14.7844 18.2836 15.0903 17.907 15.282C17.48 15.5 16.921 15.5 15.803 15.5H4.197C3.079 15.5 2.519 15.5 2.092 15.282C1.71569 15.0903 1.40974 14.7843 1.218 14.408C1 13.98 1 13.42 1 12.3Z" stroke="white" stroke-width="2" stroke-linecap="round" stroke-linejoin="round"/>
</svg>
