<svg width="20" height="20" viewBox="0 0 20 20" fill="none" xmlns="http://www.w3.org/2000/svg">
<path d="M7.502 2.257C7.35357 1.88606 7.09746 1.56808 6.76665 1.34404C6.43585 1.12 6.04553 1.00017 5.646 1H2.895C2.39241 1 1.91041 1.19965 1.55503 1.55503C1.19965 1.91041 1 2.39241 1 2.895C1 11.789 8.21 19 17.106 19C17.6084 18.9997 18.0902 18.8 18.4453 18.4446C18.8005 18.0893 19 17.6074 19 17.105V14.354C19 13.9543 18.8803 13.5638 18.6562 13.2328C18.4322 12.9018 18.1141 12.6455 17.743 12.497L15.107 11.443C14.7723 11.309 14.4075 11.2681 14.0514 11.3244C13.6953 11.3807 13.361 11.5323 13.084 11.763L12.404 12.331C12.0204 12.6507 11.5312 12.8155 11.0323 12.7929C10.5335 12.7703 10.0611 12.5621 9.708 12.209L7.792 10.29C7.43914 9.93722 7.2309 9.46529 7.20814 8.96685C7.18538 8.46841 7.34976 7.97946 7.669 7.596L8.236 6.916C8.46725 6.63905 8.61927 6.3047 8.67595 5.94838C8.73264 5.59206 8.69188 5.22704 8.558 4.892L7.502 2.257Z" stroke="white" stroke-width="2" stroke-linecap="round" stroke-linejoin="round"/>
</svg>
